PathFileType	4	(X/Y/Z)	C:\Users\Basilio\Documents\Thesis Gigler\squatting_fais\c3dfiles\038\SLS_back_pre1\markers_experimental.trc
DataRate	CameraRate	NumFrames	NumMarkers	Units	OrigDataRate	OrigDataStartFrame	OrigNumFrames
200.000000	200.000000	4	63	mm	200.000000	1086	1448
Frame#	Time	FHD			LBHD			RBHD			C7			T10			CLAV			LSHO			LUUPA			LMUPA			LDUPA			LLEP			LMEP			LUL			LRFIN			RSHO			RUPA1			RMUPA			RDUPA			RLEP			RMEP			RRAD			RUL			RUFIN			LASI			RASI			USACR			LSACR			RSACR			LTHI1			LTHI2			LTHI3			LTHI4			LLFC			LMFC			LTIB1			LTIB2			LTIB3			LTIB4			LLMAL			LMMAL			LHEE			LMT1			LMT2			LMT5			RTHI			RTHI2			RTHI3			RTHI4			RLFC			RMFC			RTIB1			RTIB2			RTIB3			RTIB4			RLMAL			RMMAL			RHEE			RMT1			RMT2			RMT5			LRAD			*61			*62			
		X1	Y1	Z1	X2	Y2	Z2	X3	Y3	Z3	X4	Y4	Z4	X5	Y5	Z5	X6	Y6	Z6	X7	Y7	Z7	X8	Y8	Z8	X9	Y9	Z9	X10	Y10	Z10	X11	Y11	Z11	X12	Y12	Z12	X13	Y13	Z13	X14	Y14	Z14	X15	Y15	Z15	X16	Y16	Z16	X17	Y17	Z17	X18	Y18	Z18	X19	Y19	Z19	X20	Y20	Z20	X21	Y21	Z21	X22	Y22	Z22	X23	Y23	Z23	X24	Y24	Z24	X25	Y25	Z25	X26	Y26	Z26	X27	Y27	Z27	X28	Y28	Z28	X29	Y29	Z29	X30	Y30	Z30	X31	Y31	Z31	X32	Y32	Z32	X33	Y33	Z33	X34	Y34	Z34	X35	Y35	Z35	X36	Y36	Z36	X37	Y37	Z37	X38	Y38	Z38	X39	Y39	Z39	X40	Y40	Z40	X41	Y41	Z41	X42	Y42	Z42	X43	Y43	Z43	X44	Y44	Z44	X45	Y45	Z45	X46	Y46	Z46	X47	Y47	Z47	X48	Y48	Z48	X49	Y49	Z49	X50	Y50	Z50	X51	Y51	Z51	X52	Y52	Z52	X53	Y53	Z53	X54	Y54	Z54	X55	Y55	Z55	X56	Y56	Z56	X57	Y57	Z57	X58	Y58	Z58	X59	Y59	Z59	X60	Y60	Z60	X61	Y61	Z61	X62	Y62	Z62	X63	Y63	Z63	

1087	5.43	-195.7550354003907	1698.4833984375	-1075.905151367188	-351.7768859863282	1646.357421875	-1135.068969726563	-341.4193420410157	1630.53076171875	-991.017272949219	-394.9768981933595	1471.8525390625	-1057.201538085938	-412.1111450195314	1194.443237304688	-1020.798278808594	-252.5755920410157	1445.281982421875	-1074.52001953125	-321.1237182617188	1483.669799804688	-1212.179321289063	-174.518295288086	1432.479736328125	-1362.470825195313	-144.3665466308594	1464.67919921875	-1336.921142578125	-107.3261489868164	1442.24658203125	-1377.647583007813	-44.53643035888673	1447.546508789063	-1386.859619140625	-29.9507122039795	1371.183349609375	-1369.313232421875	250.7673950195313	1470.494506835938	-1340.7177734375	308.9561462402344	1480.291748046875	-1246.0537109375	-286.6825866699219	1483.439331054688	-931.2159423828127	-125.8309020996094	1462.265380859375	-818.9633789062502	-92.27572631835939	1469.124267578125	-853.2947998046877	-57.89890289306642	1458.34716796875	-804.5622558593752	15.92203235626221	1456.045776367188	-797.035095214844	21.40277099609375	1377.021240234375	-810.472595214844	287.8305358886719	1447.965942382813	-890.8148193359377	303.1679382324219	1469.383422851563	-825.2694091796877	365.5798034667969	1484.338500976563	-905.6853027343752	-260.2660217285157	989.8618164062502	-1119.904296875	-269.0384216308594	1011.889831542969	-872.505554199219	-431.736541748047	1057.053344726563	-1003.425476074219	-444.6990051269532	1026.816650390625	-1031.156982421875	-446.3392028808595	1029.27734375	-973.966735839844	-229.5486297607422	686.8705444335939	-1171.602416992188	-178.4032287597657	618.1787719726564	-1165.03271484375	-135.7262725830078	635.5440063476564	-1143.431274414063	-192.7354736328126	563.6006469726564	-1145.923217773438	-181.0038604736328	507.1208496093751	-1134.895751953125	-169.8865966796875	509.6445312500001	-1020.306762695313	-193.2642669677735	327.4125061035157	-1042.27587890625	-251.1709442138672	294.8231201171876	-1101.032836914063	-217.2337493896485	282.2748718261719	-1071.945678710938	-255.335922241211	216.4136352539063	-1032.8857421875	-378.5544433593751	115.7268218994141	-1042.159790039063	-336.0873107910157	133.3199462890625	-968.6688232421877	-432.811492919922	100.7820816040039	-981.3892211914065	-234.2604522705079	46.61174011230469	-975.5609130859377	-226.1087493896485	44.68203353881837	-1026.071411132813	-271.3704833984376	33.86125946044923	-1073.02880859375	-322.5321350097657	737.2149047851564	-798.3225097656252	-287.1574096679688	680.3961181640626	-788.1108398437502	-254.1114654541016	681.4524536132814	-791.0914306640627	-317.0692749023438	600.3372802734376	-796.431823730469	-317.7525634765626	493.0852050781251	-808.8564453125002	-305.5336303710938	486.9476318359376	-922.0174560546877	-437.3321838378907	373.8640747070313	-851.706970214844	-545.9910888671876	413.8354797363282	-837.5017089843752	-523.0319824218751	372.5513610839844	-841.764343261719	-559.3281250000001	342.5332031250001	-878.7528076171877	-693.1766357421876	355.4880065917969	-875.477478027344	-665.7357177734376	326.1492919921876	-948.8061523437502	-715.9860229492189	408.9062500000001	-948.9638671875002	-736.7554321289064	192.8308410644532	-944.281433105469	-747.7367553710939	193.7261047363282	-898.5329589843752	-781.1038818359377	236.8189544677735	-864.5388183593752	nan	nan	nan	nan	nan	nan	nan	nan	nan	
1088	5.435	-195.7538604736329	1699.624145507813	-1075.647216796875	-352.1960449218751	1647.167236328125	-1135.010009765625	-341.8322753906251	1631.888305664063	-990.781921386719	-395.1753845214845	1472.930053710938	-1057.237060546875	-411.9780578613282	1195.529296875	-1020.834167480469	-252.6974639892579	1446.666381835938	-1074.52734375	-321.3303527832032	1484.79248046875	-1212.197265625	-174.6977081298828	1433.456420898438	-1362.370361328125	-144.586654663086	1465.787841796875	-1336.8984375	-107.4100494384766	1443.380981445313	-1377.654296875	-44.70060348510743	1448.467041015625	-1386.881469726563	-30.23238754272462	1372.312133789063	-1369.170532226563	250.6663360595704	1471.306640625	-1340.529541015625	308.5429382324219	1481.521606445313	-1245.866333007813	-286.9875793457032	1484.774536132813	-931.1732177734377	-125.9337463378907	1463.445068359375	-818.7415161132815	-92.49617004394533	1470.213256835938	-853.051696777344	-58.08107376098634	1459.347412109375	-804.3436279296877	15.53299427032471	1457.026977539063	-796.8211059570315	21.18441963195801	1378.122314453125	-810.314636230469	287.2654113769532	1448.85009765625	-890.5051269531252	303.0336608886719	1470.489868164063	-824.9170532226565	365.2159118652344	1485.102416992188	-905.383239746094	-259.9255065917969	991.0108032226565	-1119.83837890625	-268.9127807617188	1012.951171875	-872.500671386719	-431.2202758789064	1058.252197265625	-1003.465148925781	-444.4281311035157	1027.755493164063	-1031.308471679688	-446.0989379882814	1030.482177734375	-974.0072021484377	-229.7476959228516	687.5480346679689	-1171.307983398438	-178.8769226074219	618.8086547851564	-1164.760131835938	-136.0764312744141	636.0092773437501	-1142.996337890625	-193.322006225586	564.2637329101564	-1145.601318359375	-182.045639038086	507.4160461425782	-1134.71337890625	-170.4794158935547	509.9750976562501	-1020.047424316406	-193.6369781494141	328.0168762207032	-1042.240112304688	-251.689682006836	295.1877136230469	-1100.94189453125	-217.8080749511719	282.7032470703126	-1071.87353515625	-255.5242462158204	216.7162780761719	-1032.80712890625	-378.0864562988282	116.1139678955078	-1041.97314453125	-336.1197204589844	133.3418579101563	-968.770690917969	-432.807098388672	100.7482299804688	-981.3806762695315	-234.2521667480469	46.63766098022462	-975.5493164062502	-226.1351623535157	44.6528434753418	-1026.063232421875	-271.3188781738282	33.88008117675782	-1073.027099609375	-322.2558593750001	738.4209594726564	-798.3138427734377	-286.5736999511719	681.8908081054689	-788.1963500976565	-253.6111450195313	682.7658081054689	-790.9553222656252	-316.6241455078126	601.5348510742189	-796.3936767578127	-317.2282409667969	494.2294311523439	-808.6660766601565	-305.0817260742188	488.0201721191407	-922.0888671875002	-436.654022216797	375.3297119140626	-851.540710449219	-545.5183105468751	414.5151367187501	-837.6233520507815	-522.3969116210939	373.6797180175782	-841.7786865234377	-558.5917968750001	343.5102539062501	-878.7729492187502	-692.7284545898439	356.7213745117188	-875.5686645507815	-665.1091918945314	327.1473083496094	-948.824401855469	-715.5082397460939	409.8448791503907	-949.1089477539065	-735.7131958007814	193.7956542968751	-944.253601074219	-746.7426147460939	194.432601928711	-898.6934814453127	-780.5847778320315	237.387435913086	-864.7178344726565	nan	nan	nan	nan	nan	nan	nan	nan	nan	
1089	5.44	-196.5799560546876	1700.808959960938	-1075.503051757813	-352.2409973144532	1648.825317382813	-1134.907836914063	-342.1306762695313	1632.994506835938	-990.7603759765627	-395.3706970214845	1474.03564453125	-1057.169799804688	-411.6320800781251	1196.578491210938	-1020.884887695313	-252.9214477539063	1447.900756835938	-1074.458129882813	-321.3185424804688	1485.839599609375	-1212.185668945313	-174.7748718261719	1434.410766601563	-1362.321044921875	-144.5714569091797	1466.667602539063	-1336.895141601563	-107.5387344360352	1444.05078125	-1377.487670898438	-44.86276245117188	1449.337158203125	-1386.75146484375	-30.26660537719727	1373.115478515625	-1369.095947265625	250.5282592773438	1472.166015625	-1340.441528320313	308.5768127441407	1482.429321289063	-1245.662353515625	-287.2867126464844	1485.763671875	-931.0377197265627	-126.4349594116211	1464.48291015625	-818.6077270507815	-92.74851989746095	1471.15087890625	-852.8249511718752	-58.46165084838869	1460.41064453125	-804.074645996094	15.23824119567871	1458.036010742188	-796.531921386719	20.7969036102295	1379.029907226563	-810.177185058594	287.0104675292969	1449.729370117188	-890.3707275390627	302.5648193359376	1471.250244140625	-824.8652343750002	365.0088195800782	1485.96826171875	-905.1389770507815	-259.2837219238282	992.3110351562502	-1119.639282226563	-268.4746704101563	1014.259765625	-872.4168090820315	-430.9248962402345	1059.346801757813	-1003.566284179688	-444.0645141601564	1028.808837890625	-1031.280517578125	-445.6271972656251	1031.608642578125	-974.1018066406252	-229.8783111572266	688.2851562500001	-1171.066284179688	-179.2781524658203	619.3411865234376	-1164.528686523438	-136.6297302246094	636.6546020507814	-1142.646118164063	-194.0139617919922	564.8732910156251	-1145.357299804688	-182.7909698486328	508.0022888183595	-1134.464477539063	-171.6006469726563	510.5174560546876	-1019.519653320313	-194.091537475586	328.3295898437501	-1042.076782226563	-251.9151916503907	295.3680114746094	-1100.927856445313	-218.4799804687501	282.7040100097657	-1071.918090820313	-255.8020629882813	217.0335693359376	-1032.660278320313	-378.5645141601563	115.8019943237305	-1042.156372070313	-336.0976867675782	133.3495178222657	-968.8459472656252	-432.8064880371095	100.7923278808594	-981.396179199219	-234.2405853271485	46.6148910522461	-975.5598754882815	-226.0911712646485	44.77077865600587	-1026.024780273438	-271.3733520507813	33.86071395874024	-1073.044189453125	-321.6801147460938	739.5846557617189	-798.2427978515627	-286.1442565917969	683.1162719726564	-787.9826660156252	-253.0225372314454	683.7794799804689	-791.1716308593752	-315.9686584472657	602.7860717773439	-796.360290527344	-316.5131530761719	495.7073364257814	-808.531188964844	-304.5302429199219	489.1807250976564	-922.1708984375002	-435.8710937500001	376.3510131835938	-851.405700683594	-544.9119873046876	415.9732666015626	-837.6202392578127	-521.8249511718751	374.5043945312501	-841.9201660156252	-557.9996948242189	344.7273559570313	-878.5989990234377	-692.0434570312501	357.7611999511719	-875.530700683594	-664.3918457031251	328.0845642089844	-948.8833618164065	-714.7390136718751	410.756561279297	-949.1110839843752	-734.9611816406251	194.839096069336	-944.8404541015627	-745.8938598632814	195.1856231689454	-898.7230224609377	-779.6179199218752	238.1099090576172	-864.613708496094	nan	nan	nan	nan	nan	nan	nan	nan	nan	
1090	5.445	-196.5776672363282	1702.097412109375	-1075.394165039063	-352.4861145019532	1649.87939453125	-1134.84765625	-342.3459472656251	1634.213256835938	-990.6839599609377	-395.7305908203126	1475.214965820313	-1057.180053710938	-411.5431213378907	1197.549682617188	-1021.004943847656	-253.1819610595704	1449.082275390625	-1074.368041992188	-321.6957397460938	1486.952514648438	-1212.20654296875	-174.997543334961	1435.500854492188	-1362.240478515625	-144.6876678466797	1467.693237304688	-1336.9560546875	-107.6614151000977	1445.062133789063	-1377.57958984375	-44.4182357788086	1450.114990234375	-1386.7666015625	-30.43833541870118	1374.1142578125	-1369.010375976563	250.531723022461	1473.104370117188	-1340.380737304688	308.4004211425782	1483.566284179688	-1245.545532226563	-287.6425476074219	1486.918701171875	-930.7221679687502	-126.8257446289063	1465.310180664063	-818.4976196289065	-92.93137359619142	1472.091674804688	-852.526306152344	-58.63813781738283	1461.358520507813	-803.8829345703127	14.81266880035401	1459.029052734375	-796.3438720703127	20.4207763671875	1379.943237304688	-809.8861083984377	287.0111694335938	1450.538452148438	-890.1057739257815	302.3178405761719	1472.087646484375	-824.652038574219	364.8428039550782	1487.246826171875	-905.257995605469	-258.7628479003907	993.3652954101565	-1119.520263671875	-268.2910766601563	1015.601379394531	-872.307067871094	-430.3845825195314	1060.382202148438	-1003.580322265625	-443.4563598632814	1029.943725585938	-1031.272583007813	-445.4337158203126	1032.708618164063	-974.1751098632815	-230.2811584472657	689.0989990234376	-1170.85400390625	-179.7281951904297	619.9253540039064	-1164.320190429688	-137.0388793945313	637.2990112304689	-1142.386108398438	-194.3744659423829	565.3424682617189	-1145.097778320313	-183.4935913085938	508.5478820800782	-1134.195922851563	-172.4714050292969	511.041961669922	-1019.275695800781	-194.8001861572266	328.6904296875001	-1042.010864257813	-252.4705963134766	295.7893371582032	-1100.857421875	-218.8981323242188	283.0617675781251	-1072.042602539063	-256.0220336914063	217.3853454589844	-1032.65771484375	-378.1373596191407	116.1903533935547	-1041.999755859375	-336.1890869140626	133.3934326171875	-968.9458618164065	-432.8008728027345	100.8037796020508	-981.4039306640627	-234.2017211914063	46.66632461547852	-975.5651855468752	-226.0775451660157	44.74248886108399	-1026.040771484375	-271.3603210449219	33.81917572021485	-1073.02392578125	-321.1084594726563	740.8567504882814	-798.2320556640627	-285.5493164062501	684.4299926757814	-788.1216430664065	-252.1989135742188	685.3656005859376	-790.9017333984377	-315.4942016601563	603.9162597656251	-796.2019653320315	-316.0244750976563	497.0528259277345	-808.413269042969	-304.3136901855469	490.477020263672	-922.3130493164065	-435.3508605957032	377.5138854980469	-851.6348876953127	-544.2954101562501	416.9868469238282	-837.6560668945315	-521.0989379882814	375.5718994140626	-842.0632324218752	-557.4400634765626	345.7630615234376	-878.4156494140627	-691.2484741210939	358.6148986816407	-875.5397949218752	-663.6881103515626	329.0177612304688	-948.8979492187502	-714.1575317382814	411.5460205078126	-949.2933349609377	-734.1483764648439	195.9613800048829	-945.0857543945315	-745.1946411132814	196.2312011718751	-898.9158325195315	-778.6956176757815	239.1855468750001	-864.525085449219	nan	nan	nan	nan	nan	nan	nan	nan	nan	
